<svg width="247" height="230" viewBox="0 0 247 230" fill="none" xmlns="http://www.w3.org/2000/svg">
<path d="M123.397 196.678C70.5423 196.678 27.6949 194.347 27.6949 191.471C27.6949 188.595 70.5423 186.264 123.397 186.264C176.252 186.264 219.1 188.595 219.1 191.471C219.1 194.347 176.252 196.678 123.397 196.678Z" fill="#F5F5F5"/>
<path d="M177.825 191.471H179.8" stroke="#EB0029" stroke-linecap="round" stroke-linejoin="round"/>
<path d="M183.532 191.471H233.952" stroke="#EB0029" stroke-linecap="round" stroke-linejoin="round" stroke-dasharray="7.57 7.57"/>
<path d="M235.818 191.471H237.792" stroke="#EB0029" stroke-linecap="round" stroke-linejoin="round"/>
<path d="M60.3375 81.3611L117.29 82.2412L116.608 120.559L59.6557 119.678L60.3375 81.3611Z" fill="#EB0029"/>
<path opacity="0.3" d="M82.9126 81.7052L117.346 82.2373L116.664 120.555L82.2308 120.023L82.9126 81.7052Z" fill="white"/>
<path opacity="0.3" d="M77.7244 84.2869L87.6406 84.4717L87.5853 87.0477L77.6691 86.8628L77.7244 84.2869Z" fill="white"/>
<path opacity="0.3" d="M77.4298 114.083L87.3447 114.236L87.2989 116.812L77.384 116.659L77.4298 114.083Z" fill="white"/>
<path d="M70.8192 105.888C67.6052 105.888 64.9998 103.141 64.9998 99.7516C64.9998 96.3626 67.6052 93.6152 70.8192 93.6152C74.0332 93.6152 76.6387 96.3626 76.6387 99.7516C76.6387 103.141 74.0332 105.888 70.8192 105.888Z" stroke="white" stroke-miterlimit="10"/>
<path d="M70.5771 94.5488V95.5792" stroke="white" stroke-linecap="round" stroke-linejoin="round"/>
<path d="M70.3262 103.988V105.019" stroke="white" stroke-linecap="round" stroke-linejoin="round"/>
<path d="M75.7256 99.5488H74.615" stroke="white" stroke-linecap="round" stroke-linejoin="round"/>
<path d="M66.8115 99.5537H65.701" stroke="white" stroke-linecap="round" stroke-linejoin="round"/>
<path d="M70.583 99.549L70.5785 96.375" stroke="white" stroke-width="0.5" stroke-linecap="round" stroke-linejoin="round"/>
<path d="M70.3652 99.7559L67.9565 102.001" stroke="white" stroke-width="0.5" stroke-linecap="round" stroke-linejoin="round"/>
<path d="M70.0441 99.5532C70.0441 99.6523 70.0757 99.7493 70.1348 99.8317C70.1939 99.9142 70.2779 99.9785 70.3763 100.016C70.4746 100.054 70.5827 100.064 70.6871 100.045C70.7914 100.026 70.8873 99.9779 70.9625 99.9077C71.0378 99.8376 71.089 99.7483 71.1098 99.651C71.1305 99.5537 71.1199 99.4529 71.0792 99.3613C71.0384 99.2697 70.9695 99.1914 70.881 99.1363C70.7925 99.0812 70.6885 99.0518 70.5821 99.0518C70.5113 99.0512 70.441 99.0637 70.3755 99.0887C70.3099 99.1137 70.2503 99.1506 70.2002 99.1973C70.1502 99.2439 70.1106 99.2995 70.0838 99.3606C70.0569 99.4217 70.0435 99.4872 70.0441 99.5532Z" fill="white"/>
<path opacity="0.3" d="M70.8195 107.512C66.5641 107.512 63.1145 104.037 63.1145 99.7514C63.1145 95.4656 66.5641 91.9912 70.8195 91.9912C75.0748 91.9912 78.5244 95.4656 78.5244 99.7514C78.5244 104.037 75.0748 107.512 70.8195 107.512Z" fill="white"/>
<path d="M134.809 167.049C133.95 167.661 116.709 165.931 121.166 137.425C121.166 137.425 112.987 139.361 112.108 139.233C112.108 139.233 100.109 156.377 108.846 164.868C117.582 173.36 130.603 173.88 130.603 173.88L134.809 167.049Z" fill="#EB0029"/>
<path opacity="0.3" d="M134.809 167.049C133.95 167.661 116.709 165.931 121.166 137.425C121.166 137.425 112.987 139.361 112.108 139.233C112.108 139.233 100.109 156.377 108.846 164.868C117.582 173.36 130.603 173.88 130.603 173.88L134.809 167.049Z" fill="black"/>
<path d="M115.702 141.837C115.657 141.837 120.519 141.924 122.148 140.038C123.777 138.152 124.878 134.78 121.916 132.48C118.955 130.18 101.565 120.244 93.3767 119.462C85.188 118.68 76.4218 123.602 76.4218 123.602L87.1426 130.99L110.228 136.197L115.702 141.837Z" fill="#263238"/>
<path d="M131.423 162.56L130.974 166.682L125.663 166.263L126.462 162.026L131.423 162.56Z" fill="#FFC3BD"/>
<path d="M132.454 166.382L124.749 166.281L124.201 169.906C124.201 169.906 131.418 169.998 134.384 169.63C137.351 169.262 136.887 167.822 136.887 167.822C136.887 167.822 133.412 167.9 132.454 166.382Z" fill="#263238"/>
<path d="M65.2133 176.815C64.0628 166.278 70.8888 157.001 80.4595 156.093C90.0303 155.185 98.7215 162.992 99.872 173.529C101.022 184.066 94.1965 193.343 84.6257 194.251C75.055 195.158 66.3637 187.352 65.2133 176.815Z" fill="#263238"/>
<path d="M94.6504 116.513C94.6504 116.513 93.8507 133.612 104.522 134.099C115.194 134.587 126.66 133.497 126.66 133.497L123.298 164.22L133.303 164.795C133.303 164.795 140.485 138.731 141.616 132.181C142.746 125.631 141.764 120.998 134.345 118.091C126.926 115.184 94.6504 116.513 94.6504 116.513Z" fill="#EB0029"/>
<path d="M154.37 170.762L141.077 134.78L123.308 116.5C123.308 116.5 138.817 116.555 146.27 120.548C153.723 124.541 153.999 129.339 155.367 135.047C156.734 140.756 162.218 167.776 162.218 167.776L154.37 170.762Z" fill="#EB0029"/>
<path opacity="0.7" d="M94.6501 116.514C94.6501 116.514 111.166 115.828 123.278 116.514C123.278 116.514 138.787 116.569 146.24 120.562C153.693 124.554 153.999 129.338 155.367 135.047C156.734 140.756 162.218 167.776 162.218 167.776L154.37 170.761L141.077 134.78C138.841 144.753 133.303 164.777 133.303 164.777L123.298 164.22L126.664 133.515C126.664 133.515 115.203 134.605 104.527 134.118C93.8505 133.63 94.6501 116.514 94.6501 116.514Z" fill="black"/>
<path d="M121.916 88.7803L128.051 89.4749C128.051 89.4749 129.117 99.9859 130.11 102.028C130.11 102.028 148.98 104.443 156.709 104.236L160.633 106.72L160.771 111.04L156.926 111.145L155.687 108.408C155.687 108.408 153.091 108.303 152.489 106.941C152.489 106.941 132.439 111.454 125.055 106.302C125.045 106.306 120.593 100.211 121.916 88.7803Z" fill="#FFC3BD"/>
<path d="M104.335 60.6328C104.335 60.6328 102.415 62.9328 103.145 64.9246C103.347 65.4926 103.702 66.0027 104.177 66.4055C104.651 66.8084 105.229 67.0905 105.855 67.2246C105.855 67.2246 106.215 70.4124 108.234 70.5044C110.253 70.5964 109.577 63.4802 109.577 63.4802L104.335 60.6328Z" fill="#263238"/>
<path d="M119.877 116.592L121.225 96.0442L129.586 90.8646C129.586 90.8646 126.851 81.8808 121.619 80.3582C116.387 78.8356 104.975 75.3442 98.0553 77.0784C91.1352 78.8126 91.9299 86.421 93.1194 92.0652L94.4521 92.3596C94.4521 92.3596 94.6594 114.601 94.6693 116.514L119.877 116.592Z" fill="#263238"/>
<path d="M104.832 78.3479C107.572 80.8181 113.159 82.2901 114.704 81.0619C116.249 79.8337 114.299 78.7067 112.848 77.3175C112.063 76.5539 112.088 75.1233 112.271 73.9825C112.367 73.4077 112.509 72.8403 112.695 72.2851C117.824 72.0229 119.951 69.7873 120.163 65.8451C120.376 61.9029 118.46 57.3259 118.46 57.3259L114.837 54.4463C114.837 54.4463 109.901 55.1363 105.953 57.6663C103.603 59.1567 104.299 62.0915 105.272 64.2581C105.684 65.1803 106.179 66.0683 106.752 66.9123C107.305 72.3081 104.832 78.3479 104.832 78.3479Z" fill="#FFC3BD"/>
<path d="M117.311 66.9303C117.311 66.9303 115.336 67.0178 114.472 65.877" stroke="#263238" stroke-linecap="round" stroke-linejoin="round"/>
<path d="M114.166 62.2749C114.166 62.6245 114.393 62.9005 114.66 62.8959C114.926 62.8913 115.119 62.6015 115.109 62.2519C115.099 61.9023 114.882 61.6263 114.615 61.6309C114.349 61.6355 114.151 61.9253 114.166 62.2749Z" fill="#263238"/>
<path d="M118.668 62.3853C118.668 62.7349 118.895 63.0109 119.162 63.0063C119.428 63.0017 119.621 62.7119 119.611 62.3623C119.601 62.0127 119.384 61.7367 119.117 61.7413C118.851 61.7459 118.653 62.0403 118.668 62.3853Z" fill="#263238"/>
<path d="M117.103 65.2417L117.306 62.4219L118.752 65.0991C118.526 65.2779 118.247 65.3875 117.952 65.413C117.657 65.4385 117.361 65.3787 117.103 65.2417Z" fill="#ED847E"/>
<path d="M114.403 60.0669C114.025 59.97 113.621 60.0014 113.265 60.1555C112.909 60.3097 112.623 60.5766 112.459 60.9087" stroke="#263238" stroke-linecap="round" stroke-linejoin="round"/>
<path d="M120.061 60.587C120.061 60.587 119.152 59.667 118.086 59.9016" stroke="#263238" stroke-linecap="round" stroke-linejoin="round"/>
<path d="M105.238 64.2578C110.885 64.4464 111.585 58.4802 111.585 58.4802C114.379 59.8602 118.441 57.3302 118.441 57.3302L114.818 54.4414C114.818 54.4414 109.883 55.1406 105.934 57.6614C103.57 59.1564 104.265 62.1004 105.238 64.2578Z" fill="#263238"/>
<path d="M120.257 59.0782C120.257 59.0782 123.179 57.2658 121.891 55.9594C120.603 54.653 112.71 57.137 106.812 60.1822C106.812 60.1822 120.321 51.7595 123.994 54.423C127.029 56.6264 120.297 59.6854 120.499 59.6808L120.257 59.0782Z" fill="#EB0029"/>
<path d="M103.777 58.4617C103.785 59.4155 103.979 60.36 104.349 61.2493L117.617 55.2693C117.067 54.6778 116.409 54.1824 115.672 53.8065C114.887 53.3879 114.033 53.0926 113.145 52.9325C112.203 52.7647 111.239 52.7336 110.287 52.8405C105.435 53.3603 103.752 56.8379 103.777 58.4617Z" fill="#EB0029"/>
<path d="M162.534 119.356C162.534 119.356 177.519 138.676 165.179 168.415" stroke="#263238" stroke-linecap="round" stroke-linejoin="round"/>
<path d="M142.756 129.393C142.756 129.393 142.756 129.43 142.756 129.504C142.756 129.577 142.756 129.619 142.756 129.701V129.747C142.934 131.608 143.264 133.453 143.743 135.267C144.424 137.949 145.327 140.502 146.073 142.554C149.231 151.271 148.866 160.664 148.866 160.664C149.913 159.45 151.828 158.585 154.222 157.978C162.938 155.747 177.736 156.943 177.736 156.943C180.639 147.453 179.602 132.599 176.715 124.283C173.827 115.966 165.821 117.843 165.821 117.843C165.821 117.843 157.371 118.073 156.31 117.967C154.367 117.747 152.402 117.784 150.47 118.077C143.945 119.19 142.376 123.997 142.756 129.393Z" fill="#EB0029"/>
<path d="M77.6956 165.6C92.5033 178.057 121.087 179.363 142.356 177.983L154.271 158.005L159.099 149.914L143.59 130.433L142.771 129.407C142.771 129.407 142.771 129.444 142.771 129.518C142.771 129.591 142.771 129.633 142.771 129.715V129.761C142.983 133.234 144.355 161.106 133.392 167.941L133.304 168.001C131.82 168.895 130.099 169.385 128.333 169.418C108.219 169.961 108.782 145.498 113.896 140.259L78.9937 133.722C78.9937 133.722 72.1032 149.891 77.6956 165.6Z" fill="#EB0029"/>
<path d="M116.516 134.955C116.516 134.955 119.788 137.485 118.1 140.88C116.412 144.275 100.139 137.683 93.7317 136.482C87.3249 135.282 79.9112 134.109 76.7226 133.497C73.534 132.885 73.8104 124.361 76.4165 123.607C79.0227 122.853 104.551 127.057 108.786 129.366C111.583 130.949 114.176 132.824 116.516 134.955Z" fill="#263238"/>
<path d="M108.322 66.3646C108.634 66.0521 108.822 65.6505 108.857 65.2252C108.892 64.8 108.772 64.3763 108.515 64.0232C107.725 62.9192 106.131 61.1666 104.601 62.4776C102.459 64.3176 106.116 67.6618 107.631 66.8522C107.885 66.7208 108.118 66.5566 108.322 66.3646Z" fill="#FFC3BD"/>
<path opacity="0.2" d="M120.258 59.0782C120.258 59.0782 123.18 57.2658 121.892 55.9594C121.319 55.3798 119.606 55.4994 117.291 56.1158C115.803 56.4892 114.345 56.9612 112.928 57.528C110.895 58.3514 108.733 59.4048 106.813 60.1822C106.813 60.1822 120.322 51.7595 123.994 54.423C127.03 56.6264 120.717 59.483 120.495 59.6762L120.386 59.3036L120.258 59.0782Z" fill="black"/>
<path d="M118.871 58.291C118.871 58.291 121.832 58.751 119.789 61.7226L118.871 58.291Z" fill="#263238"/>
<path d="M116.032 56.4794C116.032 56.4794 120.499 55.0166 121.743 55.8446C122.987 56.6726 121.684 58.2504 120.262 59.0646L119.122 59.2026L118.451 57.3166L116.713 57.1188L116.032 56.4794Z" fill="#263238"/>
<path opacity="0.3" d="M109.946 54.2297L111.017 55.7063L115.672 53.8203C114.887 53.4017 114.033 53.1064 113.145 52.9463L109.946 54.2297Z" fill="white"/>
<path opacity="0.1" d="M110.983 71.8799C111.291 72.6433 111.733 73.3537 112.291 73.9821C112.388 73.4073 112.529 72.8399 112.716 72.2847C112.117 72.2457 111.531 72.1087 110.983 71.8799Z" fill="black"/>
<path d="M155.233 112.332C155.431 115.52 156.911 118.128 158.728 118.772C159.042 118.885 159.379 118.934 159.715 118.915C161.956 118.795 163.585 115.663 163.358 111.923C163.131 108.183 161.127 105.248 158.886 105.368C157.973 105.414 157.168 105.961 156.541 106.84C155.618 108.1 155.1 110.115 155.233 112.332Z" fill="#F5F5F5"/>
<path d="M155.233 112.332C155.431 115.52 156.912 118.128 158.728 118.772C160.801 118.662 162.307 115.768 162.094 112.332C161.882 108.896 160.036 106.168 157.963 106.279C157.429 106.316 156.923 106.518 156.527 106.854C155.618 108.1 155.1 110.115 155.233 112.332Z" fill="white"/>
<path d="M75.2371 157.518C79.0526 155.02 93.8159 152.568 93.8159 152.568C102.784 152.568 110.657 160.089 111.743 170.076C112.632 178.2 108.782 185.573 102.577 188.936C102.577 188.936 102.059 189.138 101.19 189.456C97.9028 190.666 89.5611 193.596 84.6302 194.24" fill="#263238"/>
<path opacity="0.3" d="M65.2133 176.815C64.0628 166.278 70.8888 157.001 80.4595 156.093C90.0303 155.185 98.7215 162.992 99.872 173.529C101.022 184.066 94.1965 193.343 84.6257 194.251C75.055 195.158 66.3637 187.352 65.2133 176.815Z" fill="black"/>
<path d="M141.947 176.202C140.796 165.665 147.622 156.387 157.193 155.48C166.764 154.572 175.455 162.378 176.605 172.915C177.756 183.452 170.93 192.73 161.359 193.637C151.788 194.545 143.097 186.739 141.947 176.202Z" fill="#263238"/>
<path d="M148.63 158.995L157.455 193.527C158.742 193.722 160.052 193.757 161.349 193.633H161.448C163.141 193.228 162.386 193.665 164.084 193.141C168.403 191.811 174.676 189.461 174.676 189.461C181.325 186.448 185.081 179.12 184.168 170.748C183.062 160.605 175.254 153.029 166.063 153.65C166.063 153.65 161.7 154.4 157.208 155.49C155.234 155.95 153.259 156.497 151.635 157.068C150.56 157.605 149.552 158.251 148.63 158.995Z" fill="#263238"/>
<path opacity="0.3" d="M141.946 176.18C142.933 185.265 149.533 192.317 157.465 193.508C158.752 193.703 160.062 193.738 161.359 193.614H161.458C163.265 193.432 165.021 192.944 166.641 192.174C173.309 189.023 177.529 181.369 176.606 172.905C175.456 162.376 166.784 154.579 157.218 155.471H157.193C155.251 155.654 153.366 156.19 151.645 157.049C150.57 157.587 149.562 158.235 148.639 158.981C143.916 162.808 141.166 169.23 141.946 176.18Z" fill="black"/>
<path d="M144.35 164.082C144.639 163.652 144.969 163.247 145.337 162.872C147.543 160.066 152.588 159.017 155.89 159.266C158.421 159.496 160.852 160.308 162.963 161.63C165.372 163.084 167.094 165.31 169.483 166.837C174.015 169.754 180.89 169.671 185.441 166.667C185.698 166.497 185.942 166.311 186.172 166.11C186.635 165.661 186.945 165.092 187.06 164.477C187.234 163.71 187.171 162.913 186.877 162.177C185.89 159.592 182.598 157.32 180.52 155.935C176.307 153.165 171.352 151.539 166.206 151.239C151.531 150.296 145.273 161.975 144.35 164.082Z" fill="#EB0029"/>
<path opacity="0.3" d="M145.367 164.45C148.521 160.209 152.568 159.018 155.87 159.266C158.402 159.497 160.832 160.309 162.943 161.631C165.352 163.084 167.075 165.311 169.464 166.838C173.995 169.754 180.871 169.672 185.422 166.668C185.678 166.498 185.922 166.312 186.152 166.111C186.616 165.661 186.925 165.093 187.041 164.478C187.215 163.711 187.151 162.913 186.858 162.178C185.333 163.82 180.89 167.776 174.874 165.858C167.371 163.443 165.54 156.267 157.519 156.331C151.147 156.4 147.223 161 145.367 164.45Z" fill="black"/>
<g opacity="0.3">
<path opacity="0.3" d="M178.373 154.67C176.233 153.253 173.825 152.224 171.275 151.639C168.723 151.034 166.08 150.832 163.457 151.041C160.837 151.276 158.272 151.884 155.85 152.844L154.952 153.212L154.074 153.622C153.481 153.879 152.923 154.201 152.351 154.496C151.778 154.79 151.25 155.153 150.702 155.48C150.154 155.807 149.641 156.188 149.118 156.552C151.271 155.208 153.568 154.078 155.974 153.18C158.375 152.282 160.904 151.72 163.481 151.51C166.053 151.281 168.648 151.436 171.167 151.97C172.431 152.231 173.671 152.588 174.873 153.037C176.094 153.475 177.266 154.022 178.373 154.67Z" fill="black"/>
</g>
<g opacity="0.3">
<path opacity="0.3" d="M162.391 151.382C163.006 149.464 163.376 147.484 163.491 145.485C163.654 143.493 163.689 141.492 163.644 139.505C163.6 137.518 163.452 135.512 163.254 133.525L162.894 130.553C162.736 129.564 162.598 128.575 162.401 127.591L162.85 133.571L163.027 136.552C163.057 137.545 163.121 138.539 163.126 139.532C163.21 141.52 163.171 143.507 163.092 145.512C163.057 146.506 162.973 147.495 162.864 148.484C162.778 149.459 162.619 150.427 162.391 151.382Z" fill="black"/>
</g>
<path opacity="0.3" d="M133.416 167.9C143.723 161.722 144.132 145.783 143.782 135.268C143.718 133.46 143.639 131.818 143.579 130.406C143.471 128.992 143.471 127.573 143.579 126.16C144.621 118.938 150.544 118.068 150.544 118.068H150.519C143.959 119.191 142.39 123.998 142.77 129.394C142.77 129.394 142.77 129.43 142.77 129.504C142.77 129.578 142.77 129.619 142.77 129.702V129.748C142.992 133.221 144.364 161.092 133.416 167.9Z" fill="black"/>
<path opacity="0.2" d="M134.256 113.464C135.12 114.306 146.29 112.149 148.24 113.115C149.064 113.519 149.424 114.955 150.253 116.528C152.583 119.978 155.861 120.521 156.063 120.548C152.154 117.788 151.063 111.146 153.003 106.946C154.943 102.746 161.887 103.836 162.282 103.961C161.098 103.475 159.824 103.208 158.531 103.174C154.775 102.99 150.194 103.974 148.911 106.192C146.305 110.713 135.13 109.697 134.103 110.884C133.076 112.07 133.392 112.622 134.256 113.464Z" fill="black"/>
<path d="M143.002 109.448C143.681 110.616 143.952 111.953 143.777 113.271L134.315 114.264C133.831 113.743 133.474 113.13 133.267 112.468C133.06 111.806 133.008 111.11 133.116 110.428C133.116 110.428 142.489 109.549 143.002 109.448Z" fill="#263238"/>
<path d="M171.734 109.121C171.734 109.121 172.677 107.254 171.547 106.071C174.074 105.86 175.639 105.611 177.268 105.391C177.509 106.076 177.628 106.734 176.774 107.778C175.92 108.822 171.734 109.121 171.734 109.121Z" fill="#263238"/>
<path d="M176.991 120.811C178.63 123.299 180.032 127.283 180.155 133.645" stroke="#EB0029" stroke-linecap="round" stroke-linejoin="round"/>
<path d="M171.596 116.707C172.788 116.965 173.884 117.516 174.77 118.303" stroke="#EB0029" stroke-linecap="round" stroke-linejoin="round"/>
<path d="M97.9867 92.7275L104.216 93.4359C104.216 93.4359 105.302 104.103 106.309 106.178C106.309 106.178 125.465 108.634 133.318 108.418L137.301 110.939L137.439 115.327L133.535 115.433L132.276 112.673C132.276 112.673 129.641 112.567 129.034 111.183C129.034 111.183 108.678 115.783 101.18 110.539C101.185 110.52 96.659 104.333 97.9867 92.7275Z" fill="#FFC3BD"/>
<path opacity="0.2" d="M148.708 174.8C148.886 180.587 152.953 185.168 157.795 185.04C158.446 185.021 159.09 184.918 159.71 184.731C163.59 183.581 166.383 179.317 166.23 174.326C166.077 169.496 163.219 165.503 159.463 164.395C158.713 164.17 157.926 164.066 157.138 164.087C152.296 164.22 148.525 169.032 148.708 174.8Z" fill="#FAFAFA"/>
<path d="M153.165 174.801C153.318 179.741 156.127 183.803 159.71 184.746C163.59 183.596 166.383 179.332 166.23 174.341C166.077 169.511 163.219 165.518 159.463 164.409C155.732 165.352 153.012 169.685 153.165 174.801Z" fill="#263238"/>
<path opacity="0.2" d="M72.6557 175.26C72.8383 181.047 76.9055 185.633 81.7427 185.5C82.3937 185.484 83.0389 185.38 83.6578 185.191C87.5424 184.041 90.3361 179.782 90.1782 174.786C90.0301 169.961 87.1722 165.963 83.416 164.855C82.6654 164.63 81.8793 164.526 81.0912 164.547C76.249 164.68 72.478 169.482 72.6557 175.26Z" fill="#FAFAFA"/>
<path d="M77.1129 175.26C77.2708 180.196 80.0744 184.258 83.6579 185.201C87.5424 184.051 90.3361 179.791 90.1782 174.796C90.0301 169.97 87.1722 165.973 83.416 164.864C79.6795 165.807 76.9549 170.14 77.1129 175.26Z" fill="#263238"/>
<path d="M65.0246 160.016C64.9407 165.706 74.235 169.474 89.788 171.847C93.9804 172.534 98.2648 172.581 102.473 171.985C109.384 170.923 112.76 168.2 112.76 168.2C112.76 168.2 111.003 148.535 93.6134 146.041C81.7672 144.349 72.8529 148.801 68.3316 153.599C66.2043 155.853 65.0492 158.195 65.0246 160.016Z" fill="#EB0029"/>
<path opacity="0.3" d="M65.0249 160.016C64.941 165.707 74.2353 169.474 89.7884 171.848C93.9808 172.535 98.2652 172.581 102.474 171.986C101.728 166.645 98.3818 152.638 83.8357 151.184C77.2363 150.522 72.1425 151.764 68.332 153.599C66.2046 155.853 65.0496 158.195 65.0249 160.016Z" fill="black"/>
<g opacity="0.3">
<path opacity="0.3" d="M111.753 168.287C111.433 165.61 110.748 162.982 109.714 160.467C108.698 157.926 107.295 155.534 105.548 153.365C104.666 152.286 103.674 151.29 102.587 150.388C101.51 149.472 100.322 148.676 99.0479 148.015C96.5127 146.682 93.7033 145.866 90.8049 145.618C92.2252 145.84 93.6223 146.175 94.9807 146.621C95.6668 146.814 96.3134 147.113 96.9551 147.366C97.5989 147.654 98.2266 147.971 98.8356 148.318C99.4576 148.65 100.03 149.05 100.618 149.422C101.205 149.795 101.748 150.237 102.266 150.701C103.32 151.594 104.28 152.578 105.134 153.641C106.868 155.768 108.281 158.107 109.334 160.591C109.881 161.829 110.353 163.094 110.746 164.382C111.165 165.664 111.501 166.968 111.753 168.287Z" fill="black"/>
</g>
<path d="M135.09 161.792L134.063 165.04L123.298 164.202L123.155 159.662L135.09 161.792Z" fill="#EB0029"/>
<path d="M70.9971 139.642L47.3097 138.745" stroke="#EB0029" stroke-linecap="round" stroke-linejoin="round"/>
<path d="M39.4814 134.725L35.9621 134.592" stroke="#EB0029" stroke-linecap="round" stroke-linejoin="round"/>
<path d="M59.6445 135.489L42.1813 134.826" stroke="#EB0029" stroke-linecap="round" stroke-linejoin="round"/>
<path d="M47.4229 146.915L32.7879 146.363" stroke="#EB0029" stroke-linecap="round" stroke-linejoin="round"/>
<path d="M56.4707 147.26L50.0935 147.017" stroke="#EB0029" stroke-linecap="round" stroke-linejoin="round"/>
</svg>
