<svg width="247" height="230" viewBox="0 0 247 230" fill="none" xmlns="http://www.w3.org/2000/svg">
<path d="M123.398 196.678C176.253 196.678 219.1 194.347 219.1 191.471C219.1 188.595 176.253 186.264 123.398 186.264C70.5427 186.264 27.6953 188.595 27.6953 191.471C27.6953 194.347 70.5427 196.678 123.398 196.678Z" fill="#F5F5F5"/>
<path d="M95.4556 55.0396C91.6105 57.9928 87.8543 62.7538 90.0557 67.9196C92.2571 73.0854 106.344 73.6052 109.306 71.48C113.156 68.72 109.755 56.4288 106.754 56.3552C106.527 51.7966 98.6688 52.5694 95.4556 55.0396Z" fill="#263238"/>
<path d="M90.0703 104.788C90.0703 104.788 91.6153 130.98 93.3181 145.162C93.4909 158.479 96.7733 188.563 96.7733 188.563H100.381C100.989 173.636 105.446 159.698 102.484 146.533C109.394 120.681 104.661 104.806 104.661 104.806L90.0703 104.788Z" fill="#FFB573"/>
<path d="M94 104.807C94 104.807 101.429 133.86 103.462 146.234C105.604 159.234 108.793 184.46 108.645 188.554H111.759C111.759 188.554 116.991 163.033 112.149 146.694C116.143 109.894 106.29 104.834 106.29 104.834L94 104.807Z" fill="#FFB573"/>
<path d="M76.1858 71.2042C75.9538 69.6356 72.8639 69.5022 72.8639 69.5022L71.3832 68.8076C71.1232 68.6593 70.8116 68.6109 70.5142 68.6727C70.2167 68.7345 69.9566 68.9016 69.7889 69.1388L69.2953 69.9024C69.1515 70.203 69.1277 70.5415 69.2282 70.8569C69.3287 71.1724 69.5468 71.444 69.8432 71.6228L70.2923 71.9264C71.0565 72.4354 71.9606 72.7306 72.8985 72.7774L74.2658 72.8464C74.566 72.8625 74.8669 72.8282 75.1542 72.7452C75.4944 72.6455 75.7845 72.4347 75.9713 72.1516C76.1581 71.8685 76.229 71.5321 76.171 71.2042H76.1858Z" fill="#FFB573"/>
<path d="M92.4596 80.3807C92.2721 80.5601 92.1734 80.6475 92.0352 80.7625L91.6452 81.0845C91.3885 81.2869 91.122 81.4755 90.8604 81.6641C90.3273 82.0321 89.7844 82.3725 89.2266 82.6945C88.1073 83.3223 86.9314 83.8579 85.7122 84.2953C83.2841 85.1756 80.7063 85.643 78.1011 85.6753H77.874C77.7551 85.6729 77.6364 85.6637 77.5186 85.6477C77.2868 85.6161 77.0598 85.559 76.8424 85.4775C76.4764 85.3369 76.1417 85.1341 75.8552 84.8795C75.4843 84.5399 75.1817 84.141 74.9618 83.7019C74.654 83.0799 74.4238 82.427 74.2758 81.7561C74.014 80.6014 73.849 79.4294 73.7822 78.2509C73.6485 75.9936 73.698 73.7301 73.9302 71.4797C73.9577 71.2282 74.0835 70.9949 74.2835 70.8242C74.4836 70.6534 74.744 70.5572 75.0153 70.5538C75.2865 70.5504 75.5496 70.64 75.7546 70.8057C75.9595 70.9713 76.092 71.2014 76.1267 71.4521V71.4797C76.3933 73.6233 76.6993 75.7991 77.1139 77.8829C77.2967 78.8921 77.5489 79.8893 77.8691 80.8683C77.9966 81.2687 78.1721 81.6545 78.3923 82.0183C78.4812 82.1517 78.57 82.2161 78.5305 82.1701C78.4652 82.1042 78.384 82.0538 78.2936 82.0229C78.2136 81.989 78.1288 81.9658 78.0419 81.9539H77.9086C78.9697 81.8636 80.0222 81.7006 81.0577 81.4663C82.0838 81.2275 83.09 80.92 84.0686 80.5463C85.0431 80.1575 85.9824 79.696 86.8771 79.1663C87.3263 78.9087 87.7607 78.6373 88.1802 78.3475C88.3875 78.2049 88.5849 78.0577 88.7824 77.9105L89.0687 77.6897L89.2859 77.5103L89.4142 77.4045C89.8446 77.0452 90.4086 76.8568 90.986 76.8795C91.5633 76.9021 92.1084 77.134 92.5049 77.5258C92.9014 77.9175 93.1181 78.4381 93.1087 78.9765C93.0993 79.515 92.8647 80.0287 92.4547 80.4083L92.4596 80.3807Z" fill="#FFB573"/>
<path d="M94.8883 75.2751C90.984 74.6679 86.8871 77.1427 84.7647 79.1575C83.6689 82.2303 87.1784 85.9655 87.1784 85.9655C87.1784 85.9655 92.1784 83.1043 93.98 81.1493C95.7817 79.1943 97.139 75.6247 94.8883 75.2751Z" fill="#E0E0E0"/>
<path d="M106.981 104.457C106.981 104.457 112.49 108.101 113.526 120.212C113.941 124.983 114.686 144.013 116.256 152.201C110.604 155.964 93.6839 155.448 91.0333 153.25C91.7836 136.69 84.9918 114.725 89.9178 104.623C98.0719 103.689 106.981 104.457 106.981 104.457Z" fill="#263238"/>
<path opacity="0.2" d="M101.394 139.192C101.468 132.232 100.367 122.655 97.0254 116.979C98.1656 124.063 101.394 139.192 101.394 139.192Z" fill="black"/>
<path d="M87.3309 80.8871C87.3309 84.8293 83.9597 86.8993 87.7752 89.9353C88.0022 93.3393 88.2688 99.4343 89.3892 104.987C90.5492 106.491 99.029 106.367 107.84 104.586C106.69 99.8253 107.114 92.0697 110.13 81.4621C110.291 80.8734 110.319 80.2602 110.214 79.6608C110.108 79.0614 109.871 78.4887 109.517 77.9787C109.163 77.4687 108.7 77.0323 108.156 76.6969C107.613 76.3615 107.001 76.1343 106.359 76.0295C105.633 75.9099 104.878 75.7995 104.078 75.7075C101.323 75.3289 98.5418 75.1352 95.7565 75.1279C94.8582 75.1279 93.9253 75.1831 93.0369 75.2383C91.4934 75.3272 90.0442 75.9608 88.9842 77.0102C87.9242 78.0596 87.333 79.4459 87.3309 80.8871Z" fill="#E0E0E0"/>
<path d="M105.33 87.7317L94.9898 89.9141C94.5963 89.9971 94.3496 90.3617 94.4387 90.7284L97.7866 104.506C97.8758 104.873 98.267 105.103 98.6605 105.02L109.001 102.837C109.394 102.754 109.641 102.39 109.552 102.023L106.204 88.2454C106.115 87.8786 105.724 87.6487 105.33 87.7317Z" fill="#EB0029"/>
<path d="M96.7787 80.2109C96.7787 80.2109 95.1054 82.0785 93.7234 82.5109L93.5654 83.4309C95.313 83.2229 96.9261 82.4477 98.1213 81.2413L96.7787 80.2109Z" fill="#EB0029"/>
<path d="M92.2327 79.0841C92.2327 79.0841 92.1636 81.5129 92.8843 82.6997L92.3462 83.4909C91.1827 82.2568 90.5222 80.6805 90.4805 79.0381L92.2327 79.0841Z" fill="#EB0029"/>
<path d="M103.738 66.958C103.076 69.4052 102.301 73.9178 104.078 75.698C104.078 75.698 97.4593 77.3816 93.1453 82.9016C91.171 77.101 95.7762 75.1184 95.7762 75.1184C98.792 74.6584 98.8315 72.6068 98.4169 70.638L103.738 66.958Z" fill="#FFB573"/>
<path opacity="0.2" d="M101.571 68.4619L98.4219 70.6469C98.5237 71.1013 98.5831 71.563 98.5996 72.0269C99.7447 71.9533 101.374 70.8999 101.561 69.8005C101.648 69.3582 101.651 68.9053 101.571 68.4619Z" fill="black"/>
<path d="M106.808 62.5968C105.54 66.5621 105.095 68.2687 102.425 69.8281C98.4072 72.1695 93.5404 69.7591 93.5107 65.4994C93.5107 61.663 95.569 55.8394 100.145 55.2046C104.72 54.5698 108.096 58.627 106.808 62.5968Z" fill="#FFB573"/>
<path d="M103.492 56.8058C102.293 60.6284 103.319 64.6258 105.767 65.0858C109.168 63.9036 109 60.3846 108.132 58.7746C107.263 57.1646 104.183 54.6024 103.492 56.8058Z" fill="#263238"/>
<path d="M105.352 63.6738C103.462 64.258 103.097 65.4402 103.097 65.4402C103.097 65.4402 104.395 64.5846 105.639 64.7456C105.458 64.4129 105.36 64.0466 105.352 63.6738Z" fill="#263238"/>
<path d="M100.628 62.2244C100.544 62.551 100.293 62.7718 100.061 62.7212C99.8285 62.6706 99.7051 62.3532 99.7891 62.0266C99.873 61.7 100.125 61.4746 100.357 61.5298C100.589 61.585 100.692 61.8978 100.628 62.2244Z" fill="#263238"/>
<path d="M96.2503 61.254C96.1663 61.5806 95.9146 61.8014 95.6826 61.7462C95.4506 61.691 95.3272 61.3828 95.4111 61.0516C95.495 60.7204 95.7468 60.5042 95.9788 60.5594C96.2108 60.6146 96.3391 60.9228 96.2503 61.254Z" fill="#263238"/>
<path d="M96.0876 60.6007L95.293 60.1729C95.293 60.1729 95.5743 60.8905 96.0876 60.6007Z" fill="#263238"/>
<path d="M97.0798 61.7881C96.578 62.4617 95.9764 63.0656 95.293 63.5821C95.443 63.7441 95.6286 63.8744 95.8372 63.964C96.0458 64.0537 96.2726 64.1007 96.5023 64.1019L97.0798 61.7881Z" fill="#ED893E"/>
<path d="M106.834 66.5759C106.572 66.8619 106.248 67.0921 105.882 67.2509C105.517 67.4096 105.119 67.4932 104.716 67.4959C103.684 67.4683 103.507 66.3643 104.074 65.4581C104.568 64.6393 105.733 63.6687 106.631 64.1333C107.529 64.5979 107.534 65.8307 106.834 66.5759Z" fill="#FFB573"/>
<path d="M101.452 60.8167C101.399 60.7922 101.358 60.7493 101.339 60.6971C101.26 60.4566 101.122 60.2362 100.938 60.0528C100.753 59.8694 100.525 59.7279 100.273 59.6391C100.218 59.6251 100.172 59.5918 100.143 59.5462C100.114 59.5007 100.106 59.4465 100.12 59.3953C100.126 59.3701 100.138 59.3463 100.154 59.3255C100.171 59.3046 100.192 59.2872 100.216 59.2743C100.24 59.2613 100.267 59.2531 100.294 59.2502C100.322 59.2473 100.35 59.2497 100.376 59.2573C100.699 59.3621 100.991 59.5362 101.229 59.7655C101.466 59.9949 101.643 60.273 101.744 60.5775C101.754 60.6019 101.758 60.628 101.757 60.6541C101.755 60.6801 101.748 60.7057 101.735 60.729C101.723 60.7524 101.705 60.773 101.684 60.7897C101.662 60.8064 101.637 60.8187 101.61 60.8259C101.558 60.8415 101.502 60.8382 101.452 60.8167Z" fill="#263238"/>
<path d="M94.6609 59.2942C94.6049 59.296 94.5502 59.2779 94.5079 59.2436C94.469 59.2059 94.4473 59.1556 94.4473 59.1033C94.4473 59.051 94.469 59.0007 94.5079 58.963C94.728 58.7259 95.0063 58.5418 95.3191 58.4265C95.6319 58.3112 95.97 58.268 96.3046 58.3006C96.3609 58.3097 96.4114 58.3386 96.4454 58.3815C96.4794 58.4243 96.4944 58.4777 96.4872 58.5306C96.4787 58.5825 96.4484 58.629 96.4031 58.6601C96.3577 58.6912 96.301 58.7041 96.2454 58.6962C95.9805 58.6716 95.7132 58.7074 95.4665 58.8003C95.2197 58.8932 95.0009 59.0406 94.8287 59.2298C94.8074 59.2512 94.7814 59.268 94.7524 59.2792C94.7234 59.2903 94.6922 59.2954 94.6609 59.2942Z" fill="#263238"/>
<path d="M100.456 61.5759L99.6611 61.1436C99.6611 61.1436 99.9425 61.8657 100.456 61.5759Z" fill="#263238"/>
<path d="M100.199 94.2364L96.25 93.5234L96.6942 97.7508C96.6942 97.7508 99.6558 97.6312 101.344 96.3708L101.502 95.8188C101.319 94.9034 101.097 94.5676 100.199 94.2364Z" fill="#FFB573"/>
<path d="M93.8764 95.3266L94.3354 97.116C94.4025 97.373 94.5705 97.5973 94.8062 97.7446C95.0419 97.8919 95.3283 97.9515 95.6089 97.9118L96.7145 97.7508L96.2703 93.5234L94.5871 94.0938C94.3273 94.1826 94.1113 94.3571 93.9803 94.5843C93.8493 94.8116 93.8123 95.0757 93.8764 95.3266Z" fill="#FFB573"/>
<path d="M109.029 79.1209C110.229 81.2623 111.276 83.4751 112.163 85.7449C112.608 86.8811 113.027 88.0449 113.363 89.2363C113.729 90.4708 113.977 91.733 114.103 93.0083C114.133 93.3441 114.148 93.6891 114.153 94.0387V94.1629V94.3607C114.141 94.4962 114.114 94.6303 114.074 94.7609C114.001 95.0145 113.888 95.2564 113.738 95.4785C113.509 95.8091 113.21 96.0925 112.859 96.3111C112.43 96.5772 111.957 96.7746 111.458 96.8953C111.08 96.9927 110.696 97.0679 110.308 97.1207C108.962 97.2784 107.605 97.3261 106.25 97.2633C103.683 97.1529 101.127 96.8669 98.6045 96.4077C98.3313 96.3655 98.0851 96.2289 97.9151 96.0251C97.7452 95.8213 97.664 95.5652 97.6876 95.308C97.7113 95.0508 97.8381 94.8114 98.0429 94.6375C98.2476 94.4636 98.5151 94.3681 98.7921 94.3699C101.26 94.3285 103.758 94.2687 106.161 94.0985C107.312 94.0242 108.456 93.8704 109.582 93.6385C109.812 93.5889 110.038 93.5244 110.258 93.4453C110.367 93.4171 110.468 93.3669 110.554 93.2981C110.46 93.3503 110.381 93.4249 110.327 93.5143C110.262 93.6112 110.212 93.7166 110.179 93.8271C110.162 93.8891 110.149 93.9521 110.14 94.0157C110.137 94.0463 110.137 94.0771 110.14 94.1077C110.14 93.8731 110.095 93.6477 110.056 93.3901C109.624 91.2581 108.951 89.1749 108.047 87.1755C107.154 85.1009 106.132 82.9895 105.085 80.9977V80.9609C104.873 80.4795 104.863 79.9414 105.058 79.4536C105.252 78.9658 105.637 78.5641 106.135 78.3286C106.633 78.0931 107.208 78.041 107.745 78.1827C108.282 78.3244 108.742 78.6495 109.034 79.0933L109.029 79.1209Z" fill="#FFB573"/>
<path d="M106.616 76.1718C109.444 76.6594 110.703 79.0284 112.756 83.7572C112.129 86.9404 107.109 88.6148 107.109 88.6148C107.109 88.6148 104.227 83.8538 103.654 81.3284C103.082 78.803 103.763 75.6796 106.616 76.1718Z" fill="#E0E0E0"/>
<path d="M100.638 188.601C100.615 188.539 100.57 188.487 100.511 188.453C100.452 188.419 100.382 188.404 100.312 188.412L96.9657 188.366C96.6233 188.345 96.2813 188.413 95.9786 188.564C94.4465 189.456 92.7257 190.029 90.9341 190.243C90.2233 190.344 90.5441 191.462 92.2223 191.48C94.9914 191.508 95.4948 191.315 97.8591 191.338C99.8779 191.361 98.9154 191.444 100.52 191.48C100.905 191.48 101.22 191.255 101.171 191.02L100.638 188.601Z" fill="#263238"/>
<path d="M112.183 188.6C112.159 188.539 112.114 188.488 112.055 188.454C111.996 188.419 111.927 188.405 111.857 188.412L109.128 188.366C108.785 188.343 108.443 188.411 108.141 188.563C107.154 189.203 107.292 189.943 105.041 190.242C104.33 190.344 104.681 191.461 106.359 191.48C109.128 191.507 108.96 191.337 110.085 191.337C111.211 191.337 110.52 191.443 112.129 191.48C112.514 191.48 112.825 191.254 112.766 191.02L112.183 188.6Z" fill="#263238"/>
<path d="M94.957 80.9192C96.3588 80.9744 98.9304 82.0462 99.7547 83.1916C100.92 82.0646 105.471 79.4472 105.549 75.9006C104.992 75.4014 104.291 75.0655 103.531 74.9346C103.531 74.9346 97.4595 77.6716 94.957 80.9192Z" fill="#FAFAFA"/>
<path d="M92.6864 80.7354C92.6864 80.7354 92.3063 77.8696 96.028 75.0866C95.6529 74.8014 94.182 75.1234 94.182 75.1234C94.182 75.1234 89.8334 76.8668 89.9618 81.3794C90.7454 80.8424 91.7229 80.6114 92.6864 80.7354Z" fill="#FAFAFA"/>
<path d="M92.1338 81.9499C91.5958 82.1845 91.3835 83.8175 92.1338 84.1993C92.884 84.5811 92.81 83.0217 93.2444 82.4881C93.6787 81.9545 93.0765 81.5405 92.1338 81.9499Z" fill="#EB0029"/>
<path d="M92.7953 82.5846C92.4103 83.0446 92.9088 84.6086 93.7381 84.604C94.5673 84.5994 93.8516 83.224 94.0145 82.5432C94.1774 81.8624 93.4518 81.775 92.7953 82.5846Z" fill="#EB0029"/>
<path d="M92.9088 83.7481C91.9858 82.4187 91.9216 89.4245 94.1576 92.1845C94.0095 89.4659 95.5742 85.6111 92.9088 83.7481Z" fill="#EB0029"/>
<path d="M92.8251 83.6879C92.4154 82.3355 90.3571 88.2603 91.4973 91.1537C92.1439 88.8123 94.5576 85.9235 92.8251 83.6879Z" fill="#EB0029"/>
<path d="M99.7059 65.3665C99.921 65.2793 100.127 65.1746 100.323 65.0537C100.334 65.0435 100.343 65.0313 100.349 65.0179C100.355 65.0044 100.358 64.99 100.358 64.9755C100.358 64.961 100.355 64.9466 100.349 64.9332C100.343 64.9198 100.334 64.9076 100.323 64.8973C100.302 64.8728 100.273 64.8564 100.24 64.8513C100.207 64.8462 100.173 64.8528 100.145 64.8697C99.705 65.1448 99.2043 65.3244 98.6798 65.3952C98.1553 65.4661 97.6204 65.4264 97.1146 65.2791C97.0997 65.273 97.0836 65.2697 97.0673 65.2694C97.0511 65.2692 97.0349 65.2719 97.0198 65.2774C97.0046 65.283 96.9908 65.2913 96.9791 65.3018C96.9675 65.3124 96.9581 65.325 96.9517 65.3389C96.9406 65.3676 96.9421 65.3992 96.956 65.4268C96.9699 65.4544 96.995 65.4757 97.0257 65.4861C97.9044 65.7556 98.8589 65.713 99.7059 65.3665Z" fill="#263238"/>
<path d="M85.3816 68.6094H60.1641V69.373H85.3816V68.6094Z" fill="#EB0029"/>
<path d="M84.7798 69.373H60.7666L61.8229 69.9066H83.7235L84.7798 69.373Z" fill="#EB0029"/>
<path opacity="0.2" d="M84.7798 69.373H60.7666L61.8229 69.9066H83.7235L84.7798 69.373Z" fill="black"/>
<path d="M68.2443 48.1531C68.0967 48.1519 67.9556 48.0968 67.8513 47.9995C67.747 47.9023 67.6878 47.7708 67.6865 47.6333V45.8899C67.6878 45.7524 67.747 45.6209 67.8513 45.5237C67.9556 45.4265 68.0967 45.3713 68.2443 45.3701C68.3918 45.3713 68.5329 45.4265 68.6372 45.5237C68.7416 45.6209 68.8007 45.7524 68.802 45.8899V47.6333C68.8007 47.7708 68.7416 47.9023 68.6372 47.9995C68.5329 48.0968 68.3918 48.1519 68.2443 48.1531Z" fill="#263238"/>
<path d="M69.1426 45.7842V45.5542C69.1426 45.3306 68.9481 45.1494 68.7082 45.1494H67.7803C67.5404 45.1494 67.3459 45.3306 67.3459 45.5542V45.7842C67.3459 46.0078 67.5404 46.189 67.7803 46.189H68.7082C68.9481 46.189 69.1426 46.0078 69.1426 45.7842Z" fill="#263238"/>
<path d="M69.1374 51.9394V46.9668C69.1374 46.9127 69.1147 46.8607 69.0741 46.822C69.0335 46.7833 68.9782 46.761 68.9202 46.7598H67.5678C67.5097 46.761 67.4545 46.7833 67.4139 46.822C67.3733 46.8607 67.3506 46.9127 67.3506 46.9668V51.9394C67.3507 52.3131 67.2659 52.6826 67.1017 53.0235C66.9375 53.3645 66.6977 53.6691 66.3979 53.9174C66.0993 54.1674 65.8602 54.4731 65.6962 54.8146C65.5321 55.1561 65.4466 55.5258 65.4453 55.9V68.6558H71.0377V55.9C71.0373 55.5257 70.9523 55.1557 70.7881 54.814C70.624 54.4724 70.3844 54.1669 70.0851 53.9174C69.7867 53.6683 69.5481 53.3634 69.3848 53.0226C69.2215 52.6817 69.1372 52.3126 69.1374 51.9394Z" fill="#EB0029"/>
<path d="M71.0378 57.4082H67.3457V65.656H71.0378V57.4082Z" fill="#E0E0E0"/>
<path d="M76.2796 68.6094H75.6133C75.8352 68.6233 76.0578 68.6233 76.2796 68.6094Z" fill="#EB0029"/>
<path d="M80.3031 68.6094H79.6318C79.8553 68.6233 80.0796 68.6233 80.3031 68.6094Z" fill="#EB0029"/>
<path opacity="0.2" d="M75.3867 58.8809V60.9739C75.3867 62.6391 76.4035 64.0237 77.6918 64.1939V67.8739C77.6918 68.4397 77.0995 68.6007 76.6404 68.6375H79.2713C78.8122 68.6007 78.2199 68.4397 78.2199 67.8739V64.1939C79.5082 64.0283 80.525 62.6437 80.525 60.9739V58.8809H75.3867Z" fill="#EB0029"/>
<path d="M105.97 56.9114C103.996 57.6934 97.3814 57.9326 94.79 57.4082C97.4702 53.88 103.492 52.845 105.97 56.9114Z" fill="#263238"/>
<path d="M112.194 69.5152C112.175 69.5148 112.156 69.5105 112.139 69.5026C112.122 69.4946 112.107 69.4832 112.095 69.4692C112.031 69.3864 110.575 67.39 110.545 62.0448C110.545 59.8138 109.81 58.0198 108.571 57.1136C108.249 56.8657 107.869 56.6916 107.462 56.6054C107.055 56.5191 106.632 56.523 106.226 56.6168C106.21 56.6201 106.194 56.6205 106.178 56.6179C106.162 56.6153 106.147 56.6098 106.133 56.6017C106.119 56.5936 106.107 56.583 106.098 56.5706C106.088 56.5582 106.082 56.5442 106.078 56.5294C106.075 56.5146 106.074 56.4993 106.077 56.4843C106.08 56.4694 106.086 56.4551 106.094 56.4423C106.103 56.4295 106.114 56.4184 106.128 56.4097C106.141 56.4009 106.156 56.3947 106.172 56.3914C106.612 56.2937 107.071 56.2914 107.513 56.3847C107.954 56.478 108.367 56.6644 108.719 56.9296C110.027 57.8818 110.782 59.7448 110.797 62.0402C110.827 67.3026 112.278 69.3174 112.278 69.3358C112.287 69.3482 112.294 69.3621 112.298 69.3769C112.301 69.3917 112.302 69.4071 112.299 69.422C112.296 69.437 112.29 69.4513 112.282 69.4642C112.273 69.477 112.261 69.4881 112.248 69.4968C112.232 69.5064 112.213 69.5127 112.194 69.5152Z" fill="#263238"/>
<path d="M147.712 42.4355C149.089 44.1927 149.084 46.9297 148.615 48.4155C146.148 47.3713 146.533 44.3721 146.533 44.3721L147.712 42.4355Z" fill="#263238"/>
<path d="M155.091 64.184L156.513 65.6422L157.994 67.1234C158.981 68.1032 159.968 69.06 160.985 69.98C161.478 70.44 161.972 70.9 162.5 71.3048C163.028 71.7096 163.487 72.142 164.005 72.5146C164.524 72.8872 164.993 73.2184 165.452 73.5036C165.797 73.7197 166.16 73.9104 166.538 74.074L165.782 73.9636C165.558 73.9385 165.332 73.9856 165.141 74.097C165.141 74.097 165.259 74.097 165.427 74.005C165.885 73.7434 166.311 73.4348 166.696 73.085C167.706 72.1901 168.651 71.2326 169.524 70.2192C170.467 69.1658 171.385 68.0434 172.298 66.9072C173.211 65.771 174.124 64.6072 175.022 63.4618L175.067 63.4112C175.382 63.0244 175.832 62.7526 176.339 62.6432C176.847 62.5338 177.379 62.5938 177.844 62.8126C178.309 63.0315 178.677 63.3954 178.884 63.841C179.091 64.2865 179.123 64.7856 178.976 65.2512C178.476 66.705 177.898 68.1344 177.244 69.5338C176.597 70.9138 175.881 72.2938 175.072 73.6738C174.232 75.1091 173.261 76.4742 172.169 77.754C171.518 78.5106 170.784 79.2014 169.978 79.8148C169.444 80.2174 168.859 80.5573 168.236 80.8268C167.32 81.2243 166.318 81.4165 165.309 81.388C165.122 81.3815 164.937 81.3584 164.756 81.319L164.548 81.2776C163.467 81.0362 162.421 80.6732 161.434 80.1966C160.607 79.804 159.807 79.3631 159.04 78.8764C157.633 77.9937 156.29 77.0239 155.022 75.9738C153.778 74.9664 152.623 73.913 151.503 72.8412C150.95 72.2984 150.397 71.7556 149.869 71.1944C149.341 70.6332 148.832 70.0858 148.275 69.4464C147.652 68.6039 147.386 67.5764 147.529 66.5621C147.671 65.5477 148.211 64.6184 149.045 63.9532C149.879 63.288 150.948 62.9342 152.045 62.9598C153.142 62.9854 154.19 63.3888 154.988 64.092L155.091 64.184Z" fill="#E0E0E0"/>
<path d="M177.233 65.9462L181.631 66.144L180.204 60.624C180.204 60.624 176.113 60.9046 175.456 62.8642C175.387 63.0827 175.401 63.3166 175.496 63.5266L176.305 65.3344C176.382 65.5079 176.509 65.6575 176.674 65.7659C176.838 65.8742 177.032 65.9368 177.233 65.9462Z" fill="#FF8B7B"/>
<path d="M185.556 62.8681L184.707 61.0281C184.541 60.6715 184.246 60.3807 183.873 60.2073C183.5 60.0339 183.073 59.989 182.668 60.0805L180.2 60.6463L181.627 66.1663L184.588 65.0531C184.808 64.9721 185.009 64.8505 185.177 64.6957C185.346 64.5409 185.48 64.356 185.57 64.1521C185.66 63.9482 185.705 63.7294 185.703 63.5088C185.701 63.2882 185.65 63.0703 185.556 62.8681Z" fill="#FF8B7B"/>
<path d="M144.691 142.389C140.021 123.248 137.134 100.17 137.134 100.17L156.28 99.8848C156.28 99.8848 156.014 130.985 156.053 144.013C156.102 157.56 157.109 187.372 157.109 187.372H151.3C151.3 187.372 143.802 159.133 144.691 142.389Z" fill="#263238"/>
<path d="M143.201 115.979L140.17 120.165C141.073 125.391 142.144 131.146 143.393 136.785C143.916 128.119 143.827 118.049 143.201 115.979Z" fill="black"/>
<path d="M164.859 190.026C164.859 190.026 156.858 188.269 156.256 187.087H151.813L151.843 191.471H154.587L155.007 191.066L155.703 191.471C157.924 191.471 163.827 191.388 165.224 190.923C165.252 190.757 165.233 190.587 165.169 190.43C165.105 190.273 164.998 190.134 164.859 190.026Z" fill="#263238"/>
<path d="M126.882 141.85C129.098 122.599 129.029 109.738 131.729 100.253L149.163 100.009C149.163 100.009 141.902 130.544 138.531 143.249C135.159 155.954 129.389 187.363 129.389 187.363H124.009C124.009 187.363 122.316 156.736 126.882 141.85Z" fill="#263238"/>
<path d="M130.348 104.002C129.963 106.302 128.59 119.909 127.169 124.863C138.793 129.67 156.562 127.779 157.11 124.661C156.947 118.883 156.617 104.002 156.617 104.002H130.348Z" fill="#E0E0E0"/>
<path opacity="0.1" d="M130.994 106.527C131.806 107.753 132.787 108.874 133.911 109.862C133.911 109.862 131.404 109.444 130.994 106.527Z" fill="black"/>
<path opacity="0.1" d="M154.36 109.733C155.027 108.807 155.567 107.807 155.969 106.757C155.969 106.757 156.083 109.107 154.36 109.733Z" fill="black"/>
<path opacity="0.1" d="M131.103 108.261C131.371 109.182 131.767 110.067 132.282 110.892C131.812 110.626 131.445 110.228 131.233 109.755C131.021 109.282 130.976 108.759 131.103 108.261Z" fill="black"/>
<path d="M134.404 190.026C134.404 190.026 129.414 188.269 128.842 187.087H124.399L124.311 191.471H127.948L128.378 191.066L129.064 191.471C131.285 191.471 133.333 191.388 134.745 190.923C134.779 190.759 134.765 190.589 134.705 190.432C134.645 190.274 134.541 190.134 134.404 190.026Z" fill="#263238"/>
<path d="M131.087 61.8469C137.247 61.1339 146.043 61.2029 151.941 62.1505C153.415 62.3996 154.768 63.0741 155.808 64.0787C156.847 65.0833 157.522 66.3672 157.736 67.7487C158.975 76.0517 157.909 90.5601 157.119 105.165C143.644 109.462 129.429 105.105 129.429 105.105C128.935 102.161 130.041 92.5059 130.781 87.3539C129.671 82.0317 127.326 75.9367 125.756 68.8665C125.566 68.0756 125.556 67.2562 125.726 66.4614C125.897 65.6666 126.245 64.914 126.747 64.2523C127.25 63.5907 127.896 63.0347 128.643 62.6203C129.391 62.206 130.223 61.9425 131.087 61.8469Z" fill="#263238"/>
<path opacity="0.1" d="M131.087 61.8469C137.247 61.1339 146.043 61.2029 151.941 62.1505C153.415 62.3996 154.768 63.0741 155.808 64.0787C156.847 65.0833 157.522 66.3672 157.736 67.7487C158.975 76.0517 157.909 90.5601 157.119 105.165C143.644 109.462 129.429 105.105 129.429 105.105C128.935 102.161 130.041 92.5059 130.781 87.3539C129.671 82.0317 127.326 75.9367 125.756 68.8665C125.566 68.0756 125.556 67.2562 125.726 66.4614C125.897 65.6666 126.245 64.914 126.747 64.2523C127.25 63.5907 127.896 63.0347 128.643 62.6203C129.391 62.206 130.223 61.9425 131.087 61.8469Z" fill="white"/>
<path d="M137.184 50.8857L144.193 56.2447C143.284 58.4941 142.998 60.8447 146.957 61.7325C147.944 62.9515 146.463 65.0905 144.706 65.9231C140.55 65.0399 138.156 64.0003 136.542 61.9349C137.05 60.3157 137.86 54.2115 137.184 50.8857Z" fill="#FF8B7B"/>
<path opacity="0.2" d="M140.106 53.1211L144.193 56.2399C143.971 56.76 143.806 57.2993 143.699 57.8499C142.115 57.9557 139.914 56.4699 139.815 55.1175C139.779 54.441 139.878 53.7641 140.106 53.1211Z" fill="black"/>
<path d="M136.177 47.2326C136.818 51.3312 136.966 53.76 139.39 55.6828C143.038 58.5762 148.329 56.221 149.02 52.0028C149.637 48.217 148.487 42.1496 144.01 40.88C143.017 40.5984 141.963 40.5566 140.948 40.7587C139.933 40.9607 138.989 41.3999 138.206 42.035C137.423 42.6701 136.826 43.4803 136.471 44.3895C136.116 45.2986 136.015 46.277 136.177 47.2326Z" fill="#FF8B7B"/>
<path d="M136.137 49.1236C136.589 49.5799 137.172 49.9048 137.818 50.0591C138.463 50.2133 139.143 50.1904 139.775 49.993C138.718 48.9948 139.745 45.3424 138.689 43.8566C140.732 44.2338 148.689 45.3102 149.449 42.7388C150.273 39.9788 146.981 37.7754 145.135 37.5684C145.678 38.7184 145.629 39.551 143.605 39.1784C141.581 38.8058 133.239 37.0118 134.162 40.655C131.477 40.655 131.295 44.2982 133.259 46.0416C134.335 46.9688 135.3 48.0021 136.137 49.1236Z" fill="#263238"/>
<path d="M134.656 40.4802C133.047 40.1076 133.55 38.7276 133.911 38.585C132.405 38.9254 131.857 40.3054 133.674 40.9402C135.49 41.575 134.656 40.4802 134.656 40.4802Z" fill="#263238"/>
<path d="M134.938 49.7495C135.088 50.1986 135.331 50.6156 135.655 50.9764C135.978 51.3372 136.376 51.6347 136.823 51.8517C138.033 52.4267 138.911 51.4791 138.798 50.2923C138.704 49.2205 137.968 47.6335 136.646 47.5323C136.355 47.5188 136.065 47.5734 135.802 47.6913C135.54 47.8092 135.313 47.9866 135.143 48.2072C134.973 48.4277 134.866 48.6845 134.83 48.9539C134.794 49.2234 134.831 49.4969 134.938 49.7495Z" fill="#FF8B7B"/>
<path d="M142.351 47.3803C142.381 47.7161 142.598 47.9737 142.845 47.9553C143.092 47.9369 143.25 47.6425 143.22 47.3113C143.19 46.9801 142.973 46.7179 142.726 46.7363C142.48 46.7547 142.322 47.0445 142.351 47.3803Z" fill="#263238"/>
<path d="M146.656 47.2836C146.686 47.6194 146.903 47.877 147.15 47.854C147.396 47.831 147.549 47.5458 147.52 47.21C147.49 46.8742 147.273 46.6212 147.026 46.6396C146.779 46.658 146.626 46.9478 146.656 47.2836Z" fill="#263238"/>
<path d="M145.781 47.7344C146.301 48.7231 146.965 49.6396 147.756 50.4576C147.168 51.0648 146.063 50.9176 146.063 50.9176L145.781 47.7344Z" fill="#FF5652"/>
<path d="M141.685 46.3132C141.651 46.322 141.616 46.322 141.582 46.3132C141.555 46.3041 141.531 46.2901 141.511 46.272C141.49 46.254 141.474 46.2322 141.463 46.2081C141.452 46.184 141.446 46.1581 141.446 46.1318C141.446 46.1056 141.452 46.0797 141.463 46.0556C141.582 45.7603 141.774 45.4953 142.023 45.2826C142.273 45.0699 142.573 44.9154 142.9 44.832C142.955 44.8216 143.013 44.8323 143.06 44.8616C143.107 44.8909 143.14 44.9365 143.151 44.9884C143.162 45.0402 143.151 45.0941 143.12 45.1381C143.088 45.1821 143.039 45.2126 142.983 45.223C142.725 45.2911 142.488 45.4155 142.291 45.5859C142.095 45.7562 141.945 45.9677 141.853 46.2028C141.837 46.2329 141.814 46.2589 141.785 46.2782C141.755 46.2975 141.721 46.3095 141.685 46.3132Z" fill="#263238"/>
<path d="M149.154 45.7797C149.118 45.7799 149.083 45.7715 149.052 45.7554C149.021 45.7393 148.995 45.716 148.976 45.6877C148.845 45.4727 148.66 45.29 148.438 45.1548C148.215 45.0195 147.962 44.9357 147.698 44.9103C147.67 44.9097 147.642 44.904 147.617 44.8935C147.591 44.883 147.568 44.8679 147.549 44.8491C147.53 44.8303 147.515 44.8082 147.505 44.784C147.494 44.7597 147.49 44.7339 147.49 44.7079C147.493 44.655 147.518 44.6052 147.559 44.5691C147.601 44.533 147.656 44.5134 147.712 44.5147C148.047 44.5431 148.369 44.6456 148.653 44.8137C148.936 44.9817 149.172 45.2104 149.341 45.4807C149.369 45.5256 149.378 45.5788 149.365 45.6293C149.352 45.6798 149.319 45.7238 149.272 45.7521C149.237 45.7741 149.195 45.7838 149.154 45.7797Z" fill="#263238"/>
<path d="M136.542 61.9348C136.542 61.9348 143.734 72.1192 146.468 79.3044C149.163 70.8726 149.474 64.1244 146.962 61.7324C146.152 62.6846 142.895 63.9726 136.542 61.9348Z" fill="#E0E0E0"/>
<path d="M134.089 69.4601L133.393 71.3001L132.702 73.2137C132.243 74.4879 131.823 75.7667 131.433 77.0225C131.236 77.6527 131.063 78.2783 130.905 78.8947C130.747 79.5111 130.594 80.1229 130.485 80.7071C130.377 81.2913 130.293 81.8571 130.239 82.3631C130.211 82.7506 130.211 83.1394 130.239 83.5269L129.982 82.8553C129.775 82.4919 129.562 82.3953 129.553 82.3953C129.543 82.3953 129.622 82.4873 129.775 82.5885C130.234 82.8411 130.723 83.0447 131.231 83.1957C132.543 83.6068 133.884 83.9356 135.244 84.1801C136.69 84.4469 138.181 84.6401 139.686 84.8701C141.191 85.1001 142.741 85.2611 144.232 85.4589H144.301C144.822 85.5284 145.299 85.7673 145.649 86.1334C145.998 86.4994 146.197 86.969 146.211 87.4589C146.225 87.9488 146.052 88.4274 145.723 88.8098C145.394 89.1923 144.931 89.4539 144.415 89.5483C142.806 89.8328 141.184 90.0416 139.553 90.1739C137.924 90.3119 136.28 90.3809 134.617 90.3717C132.863 90.3688 131.112 90.2256 129.385 89.9439C128.37 89.7675 127.378 89.4947 126.423 89.1297C125.787 88.8853 125.187 88.5669 124.636 88.1821C123.825 87.6237 123.166 86.8958 122.711 86.0569C122.628 85.9007 122.56 85.7375 122.509 85.5693L122.455 85.3807C122.167 84.3793 122.009 83.3491 121.986 82.3125C121.962 81.4481 121.997 80.5831 122.09 79.7227C122.247 78.151 122.519 76.5911 122.904 75.0537C123.254 73.5541 123.699 72.1051 124.177 70.6745C124.424 69.9615 124.671 69.2531 124.947 68.5493C125.224 67.8455 125.5 67.1693 125.841 66.4103C126.286 65.4188 127.128 64.6276 128.188 64.2041C129.248 63.7805 130.444 63.7578 131.521 64.1408C132.599 64.5238 133.475 65.2824 133.963 66.2563C134.451 67.2301 134.514 68.3427 134.138 69.3589L134.089 69.4601Z" fill="#E0E0E0"/>
<path d="M144.932 86.0522L149.296 86.5582L146.887 91.7608C146.887 91.7608 142.904 90.8408 142.617 88.7984C142.589 88.5726 142.647 88.3446 142.78 88.1544L143.906 86.503C144.014 86.3454 144.168 86.2194 144.349 86.1397C144.531 86.0599 144.733 86.0296 144.932 86.0522Z" fill="#FF8B7B"/>
<path d="M152.569 90.4088L151.394 92.1016C151.166 92.4269 150.822 92.6665 150.423 92.7777C150.023 92.8888 149.594 92.8644 149.213 92.7088L146.888 91.7612L149.296 86.5586L152.016 88.1272C152.215 88.2417 152.387 88.3919 152.523 88.5692C152.659 88.7465 152.755 88.9473 152.807 89.1598C152.858 89.3722 152.864 89.5921 152.823 89.8066C152.782 90.0211 152.696 90.2258 152.569 90.4088Z" fill="#FF8B7B"/>
<path d="M136.893 60.3525C135.976 60.4882 135.135 60.9099 134.509 61.5485C136.463 63.9793 139.249 65.7156 142.406 66.4705C142.179 65.7667 142.86 63.7105 143.611 62.9745C140.851 62.5927 136.893 60.3525 136.893 60.3525Z" fill="#FAFAFA"/>
<path d="M144.473 60.6055C145.409 60.764 146.299 61.1041 147.085 61.6037C147.085 61.6037 149.849 64.4787 146.591 66.1025C146.813 65.3987 145.11 63.5219 143.585 62.9745C146.339 62.5927 144.473 60.6055 144.473 60.6055Z" fill="#FAFAFA"/>
<path d="M143.891 64.6117C141.71 63.5215 139.01 62.3393 139.76 64.2483C140.51 66.1573 139.518 66.8197 140.495 67.4683C141.473 68.1169 143.457 66.3367 144.113 66.0883C144.77 65.8399 143.891 64.6117 143.891 64.6117Z" fill="#EB0029"/>
<path d="M145.436 64.598C147.099 63.5538 149.182 62.4222 148.812 64.2852C148.442 66.1482 149.36 66.7968 148.634 67.427C147.909 68.0572 146.043 66.2954 145.451 66.047C144.858 65.7986 145.436 64.598 145.436 64.598Z" fill="#EB0029"/>
<path d="M143.595 64.4647C144.088 64.1887 145.293 63.8391 145.89 64.5889C146.487 65.3387 146.295 66.5945 145.47 66.7463C145.176 66.8018 144.871 66.7819 144.587 66.6888C144.304 66.5956 144.053 66.4327 143.861 66.2173C144.044 65.9424 144.118 65.6163 144.069 65.296C144.021 64.9756 143.853 64.6814 143.595 64.4647Z" fill="#EB0029"/>
<path d="M129.691 187.51L123.704 187.666L123.388 184.506L130.342 184.892L129.691 187.51Z" fill="black"/>
<path d="M157.322 187.501L150.856 187.667L150.141 184.93L157.362 184.276L157.322 187.501Z" fill="black"/>
<path d="M143.23 84.9804C140.206 84.1473 137.089 83.6456 133.94 83.4854C133.269 83.5222 133.012 97.658 133.067 103.44C133.067 104.222 142.721 104.066 145.189 103.712C145.327 102.097 145.357 90.3118 145.999 86.6272C146.048 86.3389 145.992 86.0437 145.84 85.7885C145.687 85.5334 145.448 85.3331 145.16 85.2195C144.548 84.9898 143.884 84.9075 143.23 84.9804Z" fill="white"/>
<path d="M193.768 62.3535H166.364V63.0803H193.768V62.3535Z" fill="#EB0029"/>
<path d="M193.197 63.0801H166.938L167.944 63.5907H192.195L193.197 63.0801Z" fill="#EB0029"/>
<path opacity="0.2" d="M193.197 63.0801H166.938L167.944 63.5907H192.195L193.197 63.0801Z" fill="black"/>
<path d="M181.197 52.0859C181.198 52.2945 181.133 52.4986 181.009 52.6724C180.885 52.8462 180.709 52.982 180.503 53.0624C180.296 53.1428 180.069 53.1644 179.849 53.1242C179.63 53.0841 179.428 52.9842 179.269 52.837C179.111 52.6899 179.003 52.5022 178.959 52.2977C178.915 52.0933 178.937 51.8812 179.022 51.6885C179.108 51.4957 179.252 51.3309 179.438 51.215C179.624 51.099 179.843 51.0371 180.067 51.0371C180.215 51.0365 180.362 51.0632 180.499 51.1156C180.636 51.1681 180.761 51.2452 180.866 51.3427C180.971 51.4401 181.054 51.5559 181.111 51.6835C181.168 51.811 181.197 51.9478 181.197 52.0859Z" fill="#EB0029"/>
<path d="M191.913 58.9817C191.152 56.7853 189.705 54.8505 187.757 53.4249L188.063 53.0615C190.09 54.5447 191.595 56.5581 192.387 58.8437L191.913 58.9817Z" fill="#EB0029"/>
<path d="M186.044 52.3669C185.491 52.0823 184.915 51.8377 184.321 51.6355L184.489 51.2031C185.107 51.4196 185.706 51.6795 186.281 51.9805L186.044 52.3669Z" fill="#EB0029"/>
<path d="M180.067 52.0859C177.094 52.0859 174.243 53.1866 172.141 55.1457C170.038 57.1048 168.857 59.7619 168.857 62.5325H191.276C191.276 59.7619 190.095 57.1048 187.993 55.1457C185.891 53.1866 183.04 52.0859 180.067 52.0859Z" fill="#EB0029"/>
<path opacity="0.3" d="M170.403 61.5985H173.3C173.4 61.5968 173.497 61.563 173.573 61.5026C173.65 61.4422 173.701 61.3591 173.72 61.2673C174.302 58.4061 176.133 55.9128 179.045 53.7462C179.111 53.6968 179.158 53.6286 179.179 53.552C179.2 53.4754 179.193 53.3947 179.16 53.3219C179.127 53.2491 179.07 53.1883 178.997 53.1487C178.923 53.109 178.838 53.0927 178.754 53.1023C176.552 53.3732 174.504 54.3047 172.92 55.7561C171.336 57.2076 170.301 59.1 169.973 61.1476C169.965 61.2043 169.971 61.2618 169.989 61.3164C170.007 61.3709 170.037 61.4213 170.078 61.464C170.119 61.5067 170.169 61.5407 170.225 61.5639C170.281 61.5871 170.341 61.5989 170.403 61.5985Z" fill="white"/>
<path d="M144.405 52.114C144.636 52.1234 144.867 52.1126 145.096 52.0818C145.127 52.0763 145.154 52.0596 145.171 52.0355C145.189 52.0113 145.196 51.9817 145.19 51.953C145.182 51.923 145.162 51.8968 145.135 51.879C145.108 51.8613 145.075 51.8533 145.042 51.8564C144.526 51.9279 144 51.8897 143.502 51.7447C143.005 51.5997 142.549 51.3517 142.169 51.0192C142.158 51.0082 142.145 50.9995 142.13 50.9935C142.115 50.9875 142.099 50.9844 142.083 50.9844C142.067 50.9844 142.05 50.9875 142.036 50.9935C142.021 50.9995 142.007 51.0082 141.996 51.0192C141.975 51.0412 141.963 51.0699 141.963 51.0997C141.963 51.1295 141.975 51.1582 141.996 51.1802C142.649 51.7561 143.506 52.0884 144.405 52.114Z" fill="#263238"/>
</svg>
