<svg width="25" height="24" viewBox="0 0 25 24" fill="none" xmlns="http://www.w3.org/2000/svg">
<path fill-rule="evenodd" clip-rule="evenodd" d="M19.17 16.973L21.925 19.728L21.076 20.576L4.35 3.85L5.197 3L8.052 5.855C9.432 5.303 10.932 5 12.5 5C17.308 5 21.472 7.848 23.5 12C22.5217 14.0113 21.0276 15.7273 19.17 16.973ZM8.986 6.79L10.65 8.454C11.4049 8.05933 12.2662 7.91598 13.1082 8.04484C13.9503 8.17369 14.7292 8.56802 15.3316 9.17039C15.934 9.77275 16.3283 10.5517 16.4572 11.3938C16.586 12.2358 16.4427 13.0971 16.048 13.852L18.303 16.107C19.877 15.107 21.207 13.704 22.148 12.001C20.186 8.45 16.534 6.2 12.5 6.2C11.3041 6.20075 10.1166 6.40013 8.986 6.79ZM15.138 12.942C15.3164 12.4427 15.3495 11.903 15.2332 11.3857C15.1169 10.8684 14.8562 10.3947 14.4812 10.0198C14.1063 9.64484 13.6326 9.38408 13.1153 9.26781C12.598 9.15154 12.0583 9.18455 11.559 9.363L15.138 12.942ZM16.948 18.146C15.568 18.698 14.068 19.001 12.5 19.001C7.692 19.001 3.528 16.153 1.5 12.001C2.47832 9.98969 3.97241 8.27373 5.83 7.028L6.697 7.895C5.0915 8.9194 3.76931 10.331 2.852 12C4.814 15.55 8.466 17.8 12.5 17.8C13.6959 17.7992 14.8834 17.5999 16.014 17.21L16.948 18.146ZM8.953 10.15L9.862 11.06C9.68355 11.5593 9.65055 12.099 9.76681 12.6163C9.88308 13.1336 10.1438 13.6073 10.5188 13.9822C10.8937 14.3572 11.3674 14.6179 11.8847 14.7342C12.402 14.8505 12.9417 14.8174 13.441 14.639L14.351 15.547C13.5961 15.9417 12.7348 16.085 11.8928 15.9562C11.0507 15.8273 10.2718 15.433 9.66939 14.8306C9.06702 14.2282 8.67269 13.4493 8.54384 12.6072C8.41498 11.7652 8.55833 10.9049 8.953 10.15Z" fill="black"/>
</svg>
